<?xml version="1.0" encoding="iso-8859-1"?>
<!-- Uploaded to: SVG Repo, www.svgrepo.com, Generator: SVG Repo Mixer Tools -->
<svg fill="#000000" height="800px" width="800px" version="1.1" id="Layer_1" xmlns="http://www.w3.org/2000/svg" xmlns:xlink="http://www.w3.org/1999/xlink" 
	 viewBox="0 0 512 512" xml:space="preserve">
<g>
	<g>
		<path d="M174.829,124.878c-13.767,0-24.971,11.202-24.976,24.976c0,13.772,11.203,24.976,24.973,24.976h0.003
			c13.772,0,24.976-11.204,24.976-24.976S188.601,124.878,174.829,124.878z"/>
	</g>
</g>
<g>
	<g>
		<path d="M337.171,124.878c-13.767,0-24.971,11.202-24.976,24.976c0,13.772,11.203,24.976,24.973,24.976h0.003
			c13.772,0,24.976-11.204,24.976-24.976S350.942,124.878,337.171,124.878z"/>
	</g>
</g>
<g>
	<g>
		<path d="M512,131.122c0-37.372-29.449-71.63-82.923-96.461C381.641,12.634,318.556,0,256,0S130.359,12.634,82.923,34.661
			C29.449,59.492,0,93.75,0,131.122c0,43.691,30.076,80.484,70.609,90.781C25.777,267.078,0,328.384,0,393.366
			c0,30.986,25.209,56.195,56.195,56.195c10.583,0,20.489-2.943,28.95-8.051C103.644,483.002,145.277,512,193.561,512h124.878
			c48.284,0,89.917-28.998,108.415-70.49c8.462,5.108,18.367,8.051,28.95,8.051c30.986,0,56.195-25.209,56.195-56.195
			c0-64.98-25.777-126.288-70.61-171.463C481.924,211.607,512,174.813,512,131.122z M318.439,474.537H193.561
			c-44.758,0-81.171-36.413-81.171-81.171c0-69.851,67.107-131.122,143.61-131.122s143.61,61.271,143.61,131.122
			C399.61,438.123,363.197,474.537,318.439,474.537z M474.537,393.366c0,10.329-8.403,18.732-18.732,18.732
			s-18.732-8.403-18.732-18.732c0-44.731-20.016-87.315-56.361-119.908c-31.277-28.049-71.565-45.251-112.174-48.217
			c11.715-7.404,22.575-23.215,27.423-37.924c3.031-10.178-4.804-18.598-17.483-18.732c-14.985,0-29.971,0-44.956,0
			c-12.679,0.134-20.514,8.555-17.483,18.732c4.848,14.709,15.708,30.519,27.423,37.924c-40.609,2.966-80.897,20.168-112.174,48.217
			c-36.346,32.593-56.361,75.177-56.361,119.908c0,10.329-8.403,18.732-18.732,18.732s-18.732-8.403-18.732-18.732
			c0-68.913,34.239-132.973,91.591-171.361L112.39,197.11v-90.964H74.927v77.961c-21.805-7.731-37.463-28.565-37.463-52.986
			c0-21.636,22.319-44.41,61.239-62.483C141.368,48.827,198.701,37.463,256,37.463s114.632,11.364,157.298,31.176
			c38.918,18.072,61.239,40.846,61.239,62.483c0,24.421-15.658,45.255-37.463,52.986v-77.961H399.61v90.965l-16.662,24.893
			C440.298,260.394,474.537,324.454,474.537,393.366z"/>
	</g>
</g>
</svg>