<?xml version="1.0" encoding="iso-8859-1"?>
<!-- Uploaded to: SVG Repo, www.svgrepo.com, Generator: SVG Repo Mixer Tools -->
<svg version="1.1" id="Layer_1" xmlns="http://www.w3.org/2000/svg" xmlns:xlink="http://www.w3.org/1999/xlink" 
	 viewBox="0 0 512 512" xml:space="preserve">
<circle style="fill:#84DCCF;" cx="255.997" cy="206.361" r="63.823"/>
<path style="fill:#027EA8;" d="M256.001,142.534c-17.729,0-33.76,7.238-45.326,18.909c7.427-3.026,15.536-4.726,24.051-4.726
	c35.25,0,63.825,28.575,63.825,63.824c0,17.52-7.069,33.382-18.498,44.915c23.32-9.501,39.773-32.364,39.773-59.099
	C319.824,171.109,291.249,142.534,256.001,142.534z"/>
<path style="fill:#84DCCF;" d="M326.916,475.839H185.085V362.374c0-39.166,31.75-70.916,70.916-70.916l0,0
	c39.166,0,70.916,31.75,70.916,70.916V475.839z"/>
<path style="fill:#027EA8;" d="M256.041,291.458c-11.08,0-23.216,2.614-32.558,7.144c38.678,0.565,68.179,32.051,68.179,70.863
	v106.47h35.336V362.374C326.998,323.207,295.207,291.458,256.041,291.458z"/>
<circle style="fill:#FFFFFF;" cx="433.29" cy="99.979" r="63.823"/>
<path style="fill:#E6E6E6;" d="M433.29,36.161c-17.729,0-33.76,7.238-45.326,18.909c7.427-3.026,15.536-4.726,24.051-4.726
	c35.25,0,63.824,28.575,63.824,63.824c0,17.52-7.069,33.382-18.498,44.916c23.32-9.501,39.773-32.364,39.773-59.099
	C497.114,64.736,468.539,36.161,433.29,36.161z"/>
<path style="fill:#FFFFFF;" d="M504.205,369.465H362.374V255.999c0-39.166,31.75-70.916,70.916-70.916l0,0
	c39.166,0,70.916,31.75,70.916,70.916L504.205,369.465L504.205,369.465z"/>
<path style="fill:#E6E6E6;" d="M433.026,185.084c-11.08,0-23.368,2.614-32.711,7.144c38.678,0.565,68.027,32.051,68.027,70.863
	v106.837h35.336V255.999C503.677,216.834,472.191,185.084,433.026,185.084z"/>
<circle style="fill:#FBB03B;" cx="78.705" cy="99.979" r="63.823"/>
<path style="fill:#F15A24;" d="M78.71,36.161c-17.729,0-33.76,7.238-45.326,18.909c7.427-3.026,15.536-4.726,24.051-4.726
	c35.25,0,63.824,28.575,63.824,63.824c0,17.52-7.069,33.382-18.498,44.916c23.32-9.501,39.772-32.364,39.772-59.099
	C142.534,64.736,113.96,36.161,78.71,36.161z"/>
<path style="fill:#FBB03B;" d="M149.626,369.465H7.795V255.999c0-39.166,31.75-70.916,70.916-70.916l0,0
	c39.166,0,70.916,31.75,70.916,70.916V369.465z"/>
<path style="fill:#F15A24;" d="M79.058,185.084c-11.08,0-23.582,2.614-32.925,7.144c38.678,0.565,67.813,32.051,67.813,70.863
	v106.837h36.375V255.999C150.319,216.834,118.223,185.084,79.058,185.084z"/>
<path d="M256.001,277.977c-39.491,0-71.619-32.129-71.619-71.619s32.129-71.618,71.619-71.618s71.618,32.129,71.618,71.618
	C327.619,245.85,295.491,277.977,256.001,277.977z M256.001,150.329c-30.895,0-56.03,25.135-56.03,56.029
	c0,30.895,25.135,56.03,56.03,56.03s56.029-25.135,56.029-56.03C312.03,175.464,286.894,150.329,256.001,150.329z"/>
<path d="M334.71,483.634H177.289v-121.26c0-43.401,35.31-78.71,78.71-78.71s78.71,35.31,78.71,78.71V483.634z M192.878,468.044
	h126.242V362.374c0-34.805-28.315-63.121-63.12-63.121c-34.806,0-63.121,28.316-63.121,63.121v105.671H192.878z"/>
<path d="M512,377.26H354.579V255.999c0-43.401,35.31-78.71,78.709-78.71c43.402,0,78.71,35.31,78.71,78.71V377.26H512z
	 M370.168,361.671h126.242V255.999c0-34.805-28.315-63.121-63.12-63.121s-63.121,28.316-63.121,63.121v105.672H370.168z"/>
<path d="M157.421,377.26H0V255.999c0-43.401,35.31-78.71,78.71-78.71c43.402,0,78.71,35.31,78.71,78.71V377.26z M15.589,361.671
	h126.242V255.999c0-34.805-28.316-63.121-63.121-63.121s-63.121,28.316-63.121,63.121V361.671z"/>
<g>
	<rect x="249.055" y="318.999" style="fill:#FFFFFF;" width="14.55" height="15.589"/>
	<rect x="249.055" y="347.06" style="fill:#FFFFFF;" width="14.55" height="15.589"/>
	<rect x="249.055" y="376.16" style="fill:#FFFFFF;" width="14.55" height="15.589"/>
</g>
<rect x="426.773" y="212.992" width="13.511" height="15.589"/>
<rect x="426.773" y="241.052" width="13.511" height="15.589"/>
<rect x="426.773" y="269.113" width="13.511" height="15.589"/>
<g>
	<rect x="72.376" y="212.992" style="fill:#FFFFFF;" width="13.511" height="15.589"/>
	<rect x="72.376" y="241.052" style="fill:#FFFFFF;" width="13.511" height="15.589"/>
	<rect x="72.376" y="269.113" style="fill:#FFFFFF;" width="13.511" height="15.589"/>
	<path style="fill:#FFFFFF;" d="M306.344,206.76h-15.589c0-19.746-15.72-35.156-34.427-35.156v-15.589
		C283.348,156.015,306.344,178.699,306.344,206.76z"/>
	<path style="fill:#FFFFFF;" d="M289.565,243.881l-10.397-11.616c4.355-3.896,7.677-8.848,9.61-14.319l14.699,5.194
		C300.673,231.072,295.863,238.244,289.565,243.881z"/>
</g>
<path d="M78.71,171.604c-39.491,0-71.618-32.129-71.618-71.619c0-39.49,32.129-71.618,71.618-71.618
	c39.491,0,71.619,32.129,71.619,71.618C150.329,139.476,118.201,171.604,78.71,171.604z M78.71,43.956
	c-30.895,0-56.029,25.135-56.029,56.029c0,30.895,25.135,56.03,56.029,56.03c30.895,0,56.03-25.135,56.03-56.03
	C134.74,69.091,109.605,43.956,78.71,43.956z"/>
<g>
	<path style="fill:#FFFFFF;" d="M129.055,99.713h-15.589c0-18.707-15.11-34.484-34.857-34.484V49.641
		C106.669,49.641,129.055,72.692,129.055,99.713z"/>
	<path style="fill:#FFFFFF;" d="M112.275,137.508l-10.397-11.616c4.353-3.896,7.676-8.848,9.61-14.32l14.699,5.195
		C123.384,124.698,118.573,131.87,112.275,137.508z"/>
</g>
<path d="M433.29,171.604c-39.491,0-71.618-32.129-71.618-71.619c0-39.49,32.128-71.618,71.618-71.618s71.619,32.129,71.619,71.618
	C504.909,139.476,472.78,171.604,433.29,171.604z M433.29,43.956c-30.895,0-56.029,25.135-56.029,56.029
	c0,30.895,25.135,56.03,56.029,56.03c30.895,0,56.03-25.135,56.03-56.03C489.32,69.091,464.184,43.956,433.29,43.956z"/>
<path d="M483.634,99.713h-15.589c0-18.707-15.292-34.484-35.039-34.484V49.641C461.067,49.641,483.634,72.692,483.634,99.713z"/>
<path d="M466.855,137.507l-10.397-11.615c4.354-3.897,7.676-8.85,9.61-14.321l14.699,5.196
	C477.962,124.699,473.152,131.87,466.855,137.507z"/>
</svg>